<svg xmlns="http://www.w3.org/2000/svg" xmlns:xlink="http://www.w3.org/1999/xlink" width="180" zoomAndPan="magnify" viewBox="0 0 135 37.5" height="50" preserveAspectRatio="xMidYMid meet" version="1.0"><defs><g/><clipPath id="eac32c8030"><path d="M 0.886719 0 L 29.753906 0 L 29.753906 37.007812 L 0.886719 37.007812 Z M 0.886719 0 " clip-rule="nonzero"/></clipPath><clipPath id="62e6813abd"><path d="M 17 0 L 29.753906 0 L 29.753906 9 L 17 9 Z M 17 0 " clip-rule="nonzero"/></clipPath><clipPath id="17a6b9225d"><path d="M 14 14 L 29.753906 14 L 29.753906 37.007812 L 14 37.007812 Z M 14 14 " clip-rule="nonzero"/></clipPath></defs><g clip-path="url(#eac32c8030)"><path fill="#fd6802" d="M 12.195312 14.390625 L 18.363281 14.390625 C 24.609375 14.390625 29.671875 19.453125 29.671875 25.699219 C 29.671875 31.945312 24.609375 37.007812 18.363281 37.007812 L 0.886719 37.007812 C 0.886719 32.464844 4.570312 28.78125 9.113281 28.78125 L 18.363281 28.78125 C 20.066406 28.78125 21.449219 27.402344 21.449219 25.699219 C 21.449219 23.996094 20.066406 22.613281 18.363281 22.613281 L 12.195312 22.613281 C 5.949219 22.613281 0.886719 17.554688 0.886719 11.308594 C 0.886719 5.0625 5.949219 0 12.195312 0 L 29.671875 0 C 29.671875 4.542969 25.992188 8.222656 21.449219 8.222656 L 12.195312 8.222656 C 10.492188 8.222656 9.113281 9.605469 9.113281 11.308594 C 9.113281 13.011719 10.492188 14.390625 12.195312 14.390625 " fill-opacity="1" fill-rule="evenodd"/></g><path fill="#fcbf02" d="M 9.113281 11.308594 C 9.113281 12.160156 9.460938 12.933594 10.015625 13.488281 C 10.570312 14.042969 11.34375 14.390625 12.195312 14.390625 L 8.085938 14.390625 C 7.230469 14.390625 6.460938 14.042969 5.90625 13.488281 C 5.351562 12.933594 5 12.160156 5 11.308594 C 5 9.601562 6.378906 8.222656 8.085938 8.222656 L 12.195312 8.222656 C 10.488281 8.222656 9.113281 9.601562 9.113281 11.308594 " fill-opacity="1" fill-rule="evenodd"/><g clip-path="url(#62e6813abd)"><path fill="#fcbf02" d="M 21.449219 8.222656 L 17.335938 8.222656 C 21.878906 8.222656 25.558594 4.542969 25.558594 0 L 29.671875 0 C 29.671875 4.542969 25.992188 8.222656 21.449219 8.222656 " fill-opacity="1" fill-rule="evenodd"/></g><g clip-path="url(#17a6b9225d)"><path fill="#fcbf02" d="M 29.671875 25.699219 C 29.671875 28.824219 28.40625 31.652344 26.363281 33.695312 C 24.316406 35.742188 21.488281 37.007812 18.363281 37.007812 L 14.25 37.007812 C 17.375 37.007812 20.203125 35.742188 22.25 33.695312 C 24.296875 31.652344 25.558594 28.824219 25.558594 25.699219 C 25.558594 19.449219 20.5 14.390625 14.25 14.390625 L 18.363281 14.390625 C 24.613281 14.390625 29.671875 19.449219 29.671875 25.699219 " fill-opacity="1" fill-rule="evenodd"/></g><g fill="#414141" fill-opacity="1"><g transform="translate(29.868389, 17.769316)"><g><path d="M 9.4375 -9.953125 C 9.34375 -10.035156 9.175781 -10.148438 8.9375 -10.296875 C 8.707031 -10.453125 8.425781 -10.597656 8.09375 -10.734375 C 7.757812 -10.878906 7.394531 -11.003906 7 -11.109375 C 6.613281 -11.222656 6.21875 -11.28125 5.8125 -11.28125 C 5.101562 -11.28125 4.566406 -11.144531 4.203125 -10.875 C 3.835938 -10.613281 3.65625 -10.242188 3.65625 -9.765625 C 3.65625 -9.390625 3.769531 -9.09375 4 -8.875 C 4.226562 -8.664062 4.570312 -8.484375 5.03125 -8.328125 C 5.488281 -8.179688 6.054688 -8.019531 6.734375 -7.84375 C 7.617188 -7.625 8.390625 -7.359375 9.046875 -7.046875 C 9.703125 -6.742188 10.203125 -6.34375 10.546875 -5.84375 C 10.890625 -5.34375 11.0625 -4.679688 11.0625 -3.859375 C 11.0625 -3.128906 10.925781 -2.507812 10.65625 -2 C 10.394531 -1.488281 10.03125 -1.070312 9.5625 -0.75 C 9.09375 -0.4375 8.5625 -0.207031 7.96875 -0.0625 C 7.375 0.0820312 6.742188 0.15625 6.078125 0.15625 C 5.398438 0.15625 4.726562 0.0859375 4.0625 -0.046875 C 3.394531 -0.191406 2.75 -0.394531 2.125 -0.65625 C 1.507812 -0.914062 0.941406 -1.226562 0.421875 -1.59375 L 1.578125 -3.859375 C 1.691406 -3.742188 1.894531 -3.59375 2.1875 -3.40625 C 2.476562 -3.21875 2.832031 -3.03125 3.25 -2.84375 C 3.664062 -2.664062 4.117188 -2.515625 4.609375 -2.390625 C 5.109375 -2.265625 5.609375 -2.203125 6.109375 -2.203125 C 6.816406 -2.203125 7.351562 -2.320312 7.71875 -2.5625 C 8.09375 -2.800781 8.28125 -3.144531 8.28125 -3.59375 C 8.28125 -4 8.132812 -4.3125 7.84375 -4.53125 C 7.550781 -4.757812 7.144531 -4.957031 6.625 -5.125 C 6.101562 -5.300781 5.488281 -5.488281 4.78125 -5.6875 C 3.9375 -5.9375 3.226562 -6.207031 2.65625 -6.5 C 2.082031 -6.800781 1.65625 -7.175781 1.375 -7.625 C 1.101562 -8.082031 0.96875 -8.65625 0.96875 -9.34375 C 0.96875 -10.257812 1.1875 -11.03125 1.625 -11.65625 C 2.0625 -12.289062 2.648438 -12.769531 3.390625 -13.09375 C 4.140625 -13.414062 4.972656 -13.578125 5.890625 -13.578125 C 6.515625 -13.578125 7.109375 -13.503906 7.671875 -13.359375 C 8.242188 -13.222656 8.773438 -13.039062 9.265625 -12.8125 C 9.753906 -12.582031 10.195312 -12.335938 10.59375 -12.078125 Z M 9.4375 -9.953125 "/></g></g></g><g fill="#414141" fill-opacity="1"><g transform="translate(41.497137, 17.769316)"><g><path d="M 16.609375 0 L 14.0625 0 L 14.0625 -5.578125 C 14.0625 -6.367188 13.925781 -6.945312 13.65625 -7.3125 C 13.382812 -7.6875 13.007812 -7.875 12.53125 -7.875 C 12.039062 -7.875 11.566406 -7.679688 11.109375 -7.296875 C 10.660156 -6.910156 10.34375 -6.410156 10.15625 -5.796875 L 10.15625 0 L 7.609375 0 L 7.609375 -5.578125 C 7.609375 -6.378906 7.472656 -6.960938 7.203125 -7.328125 C 6.929688 -7.691406 6.554688 -7.875 6.078125 -7.875 C 5.578125 -7.875 5.101562 -7.679688 4.65625 -7.296875 C 4.207031 -6.921875 3.890625 -6.425781 3.703125 -5.8125 L 3.703125 0 L 1.15625 0 L 1.15625 -9.953125 L 3.453125 -9.953125 L 3.453125 -8.109375 C 3.835938 -8.753906 4.34375 -9.25 4.96875 -9.59375 C 5.601562 -9.945312 6.332031 -10.125 7.15625 -10.125 C 7.976562 -10.125 8.617188 -9.921875 9.078125 -9.515625 C 9.546875 -9.109375 9.84375 -8.609375 9.96875 -8.015625 C 10.375 -8.691406 10.890625 -9.210938 11.515625 -9.578125 C 12.140625 -9.941406 12.84375 -10.125 13.625 -10.125 C 14.25 -10.125 14.753906 -10.007812 15.140625 -9.78125 C 15.523438 -9.5625 15.820312 -9.265625 16.03125 -8.890625 C 16.25 -8.515625 16.398438 -8.09375 16.484375 -7.625 C 16.566406 -7.15625 16.609375 -6.679688 16.609375 -6.203125 Z M 16.609375 0 "/></g></g></g><g fill="#414141" fill-opacity="1"><g transform="translate(59.158417, 17.769316)"><g><path d="M 0.46875 -2.9375 C 0.46875 -3.582031 0.648438 -4.148438 1.015625 -4.640625 C 1.378906 -5.128906 1.882812 -5.503906 2.53125 -5.765625 C 3.175781 -6.035156 3.914062 -6.171875 4.75 -6.171875 C 5.164062 -6.171875 5.585938 -6.140625 6.015625 -6.078125 C 6.441406 -6.015625 6.816406 -5.910156 7.140625 -5.765625 L 7.140625 -6.296875 C 7.140625 -6.929688 6.953125 -7.421875 6.578125 -7.765625 C 6.203125 -8.109375 5.648438 -8.28125 4.921875 -8.28125 C 4.367188 -8.28125 3.847656 -8.179688 3.359375 -7.984375 C 2.867188 -7.796875 2.347656 -7.519531 1.796875 -7.15625 L 0.984375 -8.828125 C 1.640625 -9.253906 2.3125 -9.578125 3 -9.796875 C 3.695312 -10.015625 4.425781 -10.125 5.1875 -10.125 C 6.601562 -10.125 7.707031 -9.769531 8.5 -9.0625 C 9.289062 -8.351562 9.6875 -7.335938 9.6875 -6.015625 L 9.6875 -2.84375 C 9.6875 -2.582031 9.734375 -2.394531 9.828125 -2.28125 C 9.921875 -2.164062 10.078125 -2.09375 10.296875 -2.0625 L 10.296875 0 C 10.066406 0.0390625 9.859375 0.0703125 9.671875 0.09375 C 9.484375 0.125 9.328125 0.140625 9.203125 0.140625 C 8.703125 0.140625 8.320312 0.0234375 8.0625 -0.203125 C 7.800781 -0.429688 7.640625 -0.710938 7.578125 -1.046875 L 7.515625 -1.5625 C 7.085938 -1 6.550781 -0.566406 5.90625 -0.265625 C 5.257812 0.0351562 4.601562 0.1875 3.9375 0.1875 C 3.269531 0.1875 2.671875 0.0507812 2.140625 -0.21875 C 1.617188 -0.488281 1.207031 -0.859375 0.90625 -1.328125 C 0.613281 -1.804688 0.46875 -2.34375 0.46875 -2.9375 Z M 6.65625 -2.4375 C 6.800781 -2.582031 6.914062 -2.726562 7 -2.875 C 7.09375 -3.03125 7.140625 -3.171875 7.140625 -3.296875 L 7.140625 -4.3125 C 6.835938 -4.4375 6.507812 -4.53125 6.15625 -4.59375 C 5.800781 -4.664062 5.460938 -4.703125 5.140625 -4.703125 C 4.484375 -4.703125 3.941406 -4.5625 3.515625 -4.28125 C 3.097656 -4 2.890625 -3.625 2.890625 -3.15625 C 2.890625 -2.894531 2.957031 -2.648438 3.09375 -2.421875 C 3.226562 -2.203125 3.425781 -2.019531 3.6875 -1.875 C 3.957031 -1.738281 4.28125 -1.671875 4.65625 -1.671875 C 5.03125 -1.671875 5.398438 -1.742188 5.765625 -1.890625 C 6.140625 -2.035156 6.4375 -2.21875 6.65625 -2.4375 Z M 6.65625 -2.4375 "/></g></g></g><g fill="#414141" fill-opacity="1"><g transform="translate(70.047327, 17.769316)"><g><path d="M 7.078125 -7.75 C 6.304688 -7.75 5.613281 -7.597656 5 -7.296875 C 4.394531 -7.003906 3.960938 -6.578125 3.703125 -6.015625 L 3.703125 0 L 1.15625 0 L 1.15625 -9.953125 L 3.5 -9.953125 L 3.5 -7.828125 C 3.851562 -8.503906 4.300781 -9.039062 4.84375 -9.4375 C 5.382812 -9.832031 5.957031 -10.046875 6.5625 -10.078125 C 6.707031 -10.078125 6.816406 -10.078125 6.890625 -10.078125 C 6.960938 -10.078125 7.023438 -10.070312 7.078125 -10.0625 Z M 7.078125 -7.75 "/></g></g></g><g fill="#414141" fill-opacity="1"><g transform="translate(77.38881, 17.769316)"><g><path d="M 7.125 -0.515625 C 6.90625 -0.421875 6.644531 -0.316406 6.34375 -0.203125 C 6.039062 -0.0859375 5.710938 0 5.359375 0.0625 C 5.015625 0.132812 4.664062 0.171875 4.3125 0.171875 C 3.84375 0.171875 3.410156 0.0859375 3.015625 -0.078125 C 2.628906 -0.242188 2.316406 -0.503906 2.078125 -0.859375 C 1.847656 -1.222656 1.734375 -1.695312 1.734375 -2.28125 L 1.734375 -8 L 0.421875 -8 L 0.421875 -9.953125 L 1.734375 -9.953125 L 1.734375 -13.171875 L 4.265625 -13.171875 L 4.265625 -9.953125 L 6.359375 -9.953125 L 6.359375 -8 L 4.265625 -8 L 4.265625 -3.125 C 4.285156 -2.789062 4.382812 -2.546875 4.5625 -2.390625 C 4.738281 -2.242188 4.957031 -2.171875 5.21875 -2.171875 C 5.488281 -2.171875 5.75 -2.210938 6 -2.296875 C 6.25 -2.390625 6.453125 -2.46875 6.609375 -2.53125 Z M 7.125 -0.515625 "/></g></g></g><g fill="#fd6802" fill-opacity="1"><g transform="translate(84.67535, 17.769316)"><g><path d="M 11.484375 -11.1875 L 7.171875 -11.1875 L 7.171875 0 L 4.578125 0 L 4.578125 -11.1875 L 0.265625 -11.1875 L 0.265625 -13.484375 L 11.484375 -13.484375 Z M 11.484375 -11.1875 "/></g></g></g><g fill="#fd6802" fill-opacity="1"><g transform="translate(96.417919, 17.769316)"><g><path d="M 10.765625 -2.296875 L 10.765625 0 L 1.40625 0 L 1.40625 -13.484375 L 10.59375 -13.484375 L 10.59375 -11.1875 L 4.03125 -11.1875 L 4.03125 -7.9375 L 9.703125 -7.9375 L 9.703125 -5.8125 L 4.03125 -5.8125 L 4.03125 -2.296875 Z M 10.765625 -2.296875 "/></g></g></g><g fill="#fd6802" fill-opacity="1"><g transform="translate(107.819026, 17.769316)"><g><path d="M 0.59375 -6.828125 C 0.59375 -7.648438 0.738281 -8.457031 1.03125 -9.25 C 1.332031 -10.039062 1.765625 -10.757812 2.328125 -11.40625 C 2.898438 -12.0625 3.597656 -12.582031 4.421875 -12.96875 C 5.242188 -13.363281 6.179688 -13.5625 7.234375 -13.5625 C 8.472656 -13.5625 9.546875 -13.285156 10.453125 -12.734375 C 11.359375 -12.191406 12.03125 -11.484375 12.46875 -10.609375 L 10.453125 -9.21875 C 10.234375 -9.726562 9.9375 -10.128906 9.5625 -10.421875 C 9.195312 -10.722656 8.804688 -10.929688 8.390625 -11.046875 C 7.972656 -11.171875 7.5625 -11.234375 7.15625 -11.234375 C 6.5 -11.234375 5.925781 -11.097656 5.4375 -10.828125 C 4.945312 -10.566406 4.535156 -10.222656 4.203125 -9.796875 C 3.878906 -9.367188 3.640625 -8.890625 3.484375 -8.359375 C 3.328125 -7.828125 3.25 -7.296875 3.25 -6.765625 C 3.25 -6.160156 3.34375 -5.582031 3.53125 -5.03125 C 3.71875 -4.488281 3.984375 -4.003906 4.328125 -3.578125 C 4.679688 -3.148438 5.101562 -2.8125 5.59375 -2.5625 C 6.082031 -2.320312 6.613281 -2.203125 7.1875 -2.203125 C 7.613281 -2.203125 8.039062 -2.269531 8.46875 -2.40625 C 8.894531 -2.550781 9.289062 -2.773438 9.65625 -3.078125 C 10.03125 -3.378906 10.316406 -3.769531 10.515625 -4.25 L 12.65625 -3.015625 C 12.394531 -2.347656 11.960938 -1.78125 11.359375 -1.3125 C 10.753906 -0.84375 10.078125 -0.488281 9.328125 -0.25 C 8.585938 -0.0078125 7.851562 0.109375 7.125 0.109375 C 6.15625 0.109375 5.269531 -0.0859375 4.46875 -0.484375 C 3.675781 -0.878906 2.992188 -1.410156 2.421875 -2.078125 C 1.847656 -2.742188 1.398438 -3.488281 1.078125 -4.3125 C 0.753906 -5.144531 0.59375 -5.984375 0.59375 -6.828125 Z M 0.59375 -6.828125 "/></g></g></g><g fill="#fd6802" fill-opacity="1"><g transform="translate(120.832604, 17.769316)"><g><path d="M 12.734375 -13.484375 L 12.734375 0 L 10.140625 0 L 10.140625 -5.75 L 4.03125 -5.75 L 4.03125 0 L 1.40625 0 L 1.40625 -13.484375 L 4.03125 -13.484375 L 4.03125 -8.03125 L 10.140625 -8.03125 L 10.140625 -13.484375 Z M 12.734375 -13.484375 "/></g></g></g><g fill="#929292" fill-opacity="1"><g transform="translate(32.888646, 32.879069)"><g><path d="M 5.8125 -6.125 C 5.757812 -6.175781 5.660156 -6.25 5.515625 -6.34375 C 5.367188 -6.4375 5.191406 -6.523438 4.984375 -6.609375 C 4.773438 -6.703125 4.550781 -6.78125 4.3125 -6.84375 C 4.070312 -6.90625 3.828125 -6.9375 3.578125 -6.9375 C 3.140625 -6.9375 2.804688 -6.851562 2.578125 -6.6875 C 2.359375 -6.53125 2.25 -6.300781 2.25 -6 C 2.25 -5.78125 2.316406 -5.601562 2.453125 -5.46875 C 2.597656 -5.332031 2.8125 -5.21875 3.09375 -5.125 C 3.375 -5.03125 3.726562 -4.929688 4.15625 -4.828125 C 4.695312 -4.691406 5.164062 -4.53125 5.5625 -4.34375 C 5.96875 -4.15625 6.273438 -3.90625 6.484375 -3.59375 C 6.703125 -3.28125 6.8125 -2.875 6.8125 -2.375 C 6.8125 -1.925781 6.726562 -1.546875 6.5625 -1.234375 C 6.40625 -0.921875 6.179688 -0.664062 5.890625 -0.46875 C 5.597656 -0.269531 5.269531 -0.125 4.90625 -0.03125 C 4.539062 0.0507812 4.148438 0.09375 3.734375 0.09375 C 3.328125 0.09375 2.914062 0.0507812 2.5 -0.03125 C 2.082031 -0.113281 1.679688 -0.234375 1.296875 -0.390625 C 0.921875 -0.554688 0.570312 -0.753906 0.25 -0.984375 L 0.96875 -2.375 C 1.039062 -2.300781 1.164062 -2.207031 1.34375 -2.09375 C 1.519531 -1.976562 1.738281 -1.863281 2 -1.75 C 2.257812 -1.644531 2.539062 -1.550781 2.84375 -1.46875 C 3.144531 -1.394531 3.453125 -1.359375 3.765625 -1.359375 C 4.203125 -1.359375 4.53125 -1.429688 4.75 -1.578125 C 4.976562 -1.722656 5.09375 -1.929688 5.09375 -2.203125 C 5.09375 -2.453125 5.003906 -2.644531 4.828125 -2.78125 C 4.648438 -2.925781 4.398438 -3.050781 4.078125 -3.15625 C 3.753906 -3.257812 3.375 -3.375 2.9375 -3.5 C 2.414062 -3.65625 1.976562 -3.820312 1.625 -4 C 1.28125 -4.1875 1.019531 -4.421875 0.84375 -4.703125 C 0.675781 -4.984375 0.59375 -5.332031 0.59375 -5.75 C 0.59375 -6.320312 0.726562 -6.800781 1 -7.1875 C 1.269531 -7.570312 1.632812 -7.863281 2.09375 -8.0625 C 2.550781 -8.257812 3.0625 -8.359375 3.625 -8.359375 C 4.007812 -8.359375 4.375 -8.3125 4.71875 -8.21875 C 5.070312 -8.132812 5.398438 -8.019531 5.703125 -7.875 C 6.003906 -7.738281 6.273438 -7.59375 6.515625 -7.4375 Z M 5.8125 -6.125 "/></g></g></g><g fill="#929292" fill-opacity="1"><g transform="translate(43.919042, 32.879069)"><g><path d="M 4.40625 0.0625 C 3.800781 0.0625 3.25 -0.0507812 2.75 -0.28125 C 2.257812 -0.519531 1.835938 -0.835938 1.484375 -1.234375 C 1.128906 -1.640625 0.851562 -2.09375 0.65625 -2.59375 C 0.457031 -3.101562 0.359375 -3.625 0.359375 -4.15625 C 0.359375 -4.707031 0.460938 -5.234375 0.671875 -5.734375 C 0.878906 -6.234375 1.160156 -6.679688 1.515625 -7.078125 C 1.878906 -7.472656 2.304688 -7.785156 2.796875 -8.015625 C 3.296875 -8.242188 3.84375 -8.359375 4.4375 -8.359375 C 5.039062 -8.359375 5.585938 -8.234375 6.078125 -7.984375 C 6.578125 -7.742188 7 -7.421875 7.34375 -7.015625 C 7.695312 -6.617188 7.972656 -6.171875 8.171875 -5.671875 C 8.367188 -5.171875 8.46875 -4.65625 8.46875 -4.125 C 8.46875 -3.582031 8.363281 -3.054688 8.15625 -2.546875 C 7.957031 -2.046875 7.675781 -1.597656 7.3125 -1.203125 C 6.945312 -0.816406 6.515625 -0.507812 6.015625 -0.28125 C 5.523438 -0.0507812 4.988281 0.0625 4.40625 0.0625 Z M 2 -4.15625 C 2 -3.789062 2.050781 -3.441406 2.15625 -3.109375 C 2.269531 -2.773438 2.425781 -2.476562 2.625 -2.21875 C 2.832031 -1.957031 3.085938 -1.75 3.390625 -1.59375 C 3.691406 -1.445312 4.035156 -1.375 4.421875 -1.375 C 4.804688 -1.375 5.148438 -1.453125 5.453125 -1.609375 C 5.753906 -1.765625 6.003906 -1.976562 6.203125 -2.25 C 6.410156 -2.519531 6.566406 -2.816406 6.671875 -3.140625 C 6.785156 -3.472656 6.84375 -3.8125 6.84375 -4.15625 C 6.84375 -4.507812 6.785156 -4.851562 6.671875 -5.1875 C 6.554688 -5.519531 6.394531 -5.816406 6.1875 -6.078125 C 5.976562 -6.335938 5.722656 -6.539062 5.421875 -6.6875 C 5.128906 -6.84375 4.796875 -6.921875 4.421875 -6.921875 C 4.023438 -6.921875 3.675781 -6.835938 3.375 -6.671875 C 3.070312 -6.515625 2.816406 -6.300781 2.609375 -6.03125 C 2.410156 -5.769531 2.257812 -5.472656 2.15625 -5.140625 C 2.050781 -4.816406 2 -4.488281 2 -4.15625 Z M 2 -4.15625 "/></g></g></g><g fill="#929292" fill-opacity="1"><g transform="translate(56.620016, 32.879069)"><g><path d="M 0.859375 0 L 0.859375 -8.296875 L 2.484375 -8.296875 L 2.484375 -1.421875 L 6.703125 -1.421875 L 6.703125 0 Z M 0.859375 0 "/></g></g></g><g fill="#929292" fill-opacity="1"><g transform="translate(67.311623, 32.879069)"><g><path d="M 4.390625 0.0625 C 3.722656 0.0625 3.15625 -0.046875 2.6875 -0.265625 C 2.226562 -0.492188 1.851562 -0.800781 1.5625 -1.1875 C 1.28125 -1.582031 1.070312 -2.023438 0.9375 -2.515625 C 0.8125 -3.015625 0.75 -3.53125 0.75 -4.0625 L 0.75 -8.296875 L 2.359375 -8.296875 L 2.359375 -4.0625 C 2.359375 -3.71875 2.390625 -3.382812 2.453125 -3.0625 C 2.523438 -2.738281 2.640625 -2.445312 2.796875 -2.1875 C 2.953125 -1.9375 3.15625 -1.738281 3.40625 -1.59375 C 3.664062 -1.445312 3.988281 -1.375 4.375 -1.375 C 4.757812 -1.375 5.082031 -1.445312 5.34375 -1.59375 C 5.601562 -1.75 5.804688 -1.953125 5.953125 -2.203125 C 6.109375 -2.460938 6.222656 -2.753906 6.296875 -3.078125 C 6.367188 -3.398438 6.40625 -3.726562 6.40625 -4.0625 L 6.40625 -8.296875 L 8 -8.296875 L 8 -4.0625 C 8 -3.5 7.929688 -2.96875 7.796875 -2.46875 C 7.660156 -1.96875 7.445312 -1.523438 7.15625 -1.140625 C 6.863281 -0.765625 6.488281 -0.46875 6.03125 -0.25 C 5.570312 -0.0390625 5.023438 0.0625 4.390625 0.0625 Z M 4.390625 0.0625 "/></g></g></g><g fill="#929292" fill-opacity="1"><g transform="translate(79.942502, 32.879069)"><g><path d="M 7.078125 -6.890625 L 4.421875 -6.890625 L 4.421875 0 L 2.8125 0 L 2.8125 -6.890625 L 0.15625 -6.890625 L 0.15625 -8.296875 L 7.078125 -8.296875 Z M 7.078125 -6.890625 "/></g></g></g><g fill="#929292" fill-opacity="1"><g transform="translate(91.04299, 32.879069)"><g><path d="M 0.859375 0 L 0.859375 -8.296875 L 2.484375 -8.296875 L 2.484375 0 Z M 0.859375 0 "/></g></g></g><g fill="#929292" fill-opacity="1"><g transform="translate(98.25324, 32.879069)"><g><path d="M 4.40625 0.0625 C 3.800781 0.0625 3.25 -0.0507812 2.75 -0.28125 C 2.257812 -0.519531 1.835938 -0.835938 1.484375 -1.234375 C 1.128906 -1.640625 0.851562 -2.09375 0.65625 -2.59375 C 0.457031 -3.101562 0.359375 -3.625 0.359375 -4.15625 C 0.359375 -4.707031 0.460938 -5.234375 0.671875 -5.734375 C 0.878906 -6.234375 1.160156 -6.679688 1.515625 -7.078125 C 1.878906 -7.472656 2.304688 -7.785156 2.796875 -8.015625 C 3.296875 -8.242188 3.84375 -8.359375 4.4375 -8.359375 C 5.039062 -8.359375 5.585938 -8.234375 6.078125 -7.984375 C 6.578125 -7.742188 7 -7.421875 7.34375 -7.015625 C 7.695312 -6.617188 7.972656 -6.171875 8.171875 -5.671875 C 8.367188 -5.171875 8.46875 -4.65625 8.46875 -4.125 C 8.46875 -3.582031 8.363281 -3.054688 8.15625 -2.546875 C 7.957031 -2.046875 7.675781 -1.597656 7.3125 -1.203125 C 6.945312 -0.816406 6.515625 -0.507812 6.015625 -0.28125 C 5.523438 -0.0507812 4.988281 0.0625 4.40625 0.0625 Z M 2 -4.15625 C 2 -3.789062 2.050781 -3.441406 2.15625 -3.109375 C 2.269531 -2.773438 2.425781 -2.476562 2.625 -2.21875 C 2.832031 -1.957031 3.085938 -1.75 3.390625 -1.59375 C 3.691406 -1.445312 4.035156 -1.375 4.421875 -1.375 C 4.804688 -1.375 5.148438 -1.453125 5.453125 -1.609375 C 5.753906 -1.765625 6.003906 -1.976562 6.203125 -2.25 C 6.410156 -2.519531 6.566406 -2.816406 6.671875 -3.140625 C 6.785156 -3.472656 6.84375 -3.8125 6.84375 -4.15625 C 6.84375 -4.507812 6.785156 -4.851562 6.671875 -5.1875 C 6.554688 -5.519531 6.394531 -5.816406 6.1875 -6.078125 C 5.976562 -6.335938 5.722656 -6.539062 5.421875 -6.6875 C 5.128906 -6.84375 4.796875 -6.921875 4.421875 -6.921875 C 4.023438 -6.921875 3.675781 -6.835938 3.375 -6.671875 C 3.070312 -6.515625 2.816406 -6.300781 2.609375 -6.03125 C 2.410156 -5.769531 2.257812 -5.472656 2.15625 -5.140625 C 2.050781 -4.816406 2 -4.488281 2 -4.15625 Z M 2 -4.15625 "/></g></g></g><g fill="#929292" fill-opacity="1"><g transform="translate(110.954211, 32.879069)"><g><path d="M 2.484375 -5.328125 L 2.484375 0 L 0.859375 0 L 0.859375 -8.296875 L 2.15625 -8.296875 L 6.4375 -2.828125 L 6.4375 -8.28125 L 8.046875 -8.28125 L 8.046875 0 L 6.703125 0 Z M 2.484375 -5.328125 "/></g></g></g><g fill="#929292" fill-opacity="1"><g transform="translate(123.736961, 32.879069)"><g><path d="M 5.8125 -6.125 C 5.757812 -6.175781 5.660156 -6.25 5.515625 -6.34375 C 5.367188 -6.4375 5.191406 -6.523438 4.984375 -6.609375 C 4.773438 -6.703125 4.550781 -6.78125 4.3125 -6.84375 C 4.070312 -6.90625 3.828125 -6.9375 3.578125 -6.9375 C 3.140625 -6.9375 2.804688 -6.851562 2.578125 -6.6875 C 2.359375 -6.53125 2.25 -6.300781 2.25 -6 C 2.25 -5.78125 2.316406 -5.601562 2.453125 -5.46875 C 2.597656 -5.332031 2.8125 -5.21875 3.09375 -5.125 C 3.375 -5.03125 3.726562 -4.929688 4.15625 -4.828125 C 4.695312 -4.691406 5.164062 -4.53125 5.5625 -4.34375 C 5.96875 -4.15625 6.273438 -3.90625 6.484375 -3.59375 C 6.703125 -3.28125 6.8125 -2.875 6.8125 -2.375 C 6.8125 -1.925781 6.726562 -1.546875 6.5625 -1.234375 C 6.40625 -0.921875 6.179688 -0.664062 5.890625 -0.46875 C 5.597656 -0.269531 5.269531 -0.125 4.90625 -0.03125 C 4.539062 0.0507812 4.148438 0.09375 3.734375 0.09375 C 3.328125 0.09375 2.914062 0.0507812 2.5 -0.03125 C 2.082031 -0.113281 1.679688 -0.234375 1.296875 -0.390625 C 0.921875 -0.554688 0.570312 -0.753906 0.25 -0.984375 L 0.96875 -2.375 C 1.039062 -2.300781 1.164062 -2.207031 1.34375 -2.09375 C 1.519531 -1.976562 1.738281 -1.863281 2 -1.75 C 2.257812 -1.644531 2.539062 -1.550781 2.84375 -1.46875 C 3.144531 -1.394531 3.453125 -1.359375 3.765625 -1.359375 C 4.203125 -1.359375 4.53125 -1.429688 4.75 -1.578125 C 4.976562 -1.722656 5.09375 -1.929688 5.09375 -2.203125 C 5.09375 -2.453125 5.003906 -2.644531 4.828125 -2.78125 C 4.648438 -2.925781 4.398438 -3.050781 4.078125 -3.15625 C 3.753906 -3.257812 3.375 -3.375 2.9375 -3.5 C 2.414062 -3.65625 1.976562 -3.820312 1.625 -4 C 1.28125 -4.1875 1.019531 -4.421875 0.84375 -4.703125 C 0.675781 -4.984375 0.59375 -5.332031 0.59375 -5.75 C 0.59375 -6.320312 0.726562 -6.800781 1 -7.1875 C 1.269531 -7.570312 1.632812 -7.863281 2.09375 -8.0625 C 2.550781 -8.257812 3.0625 -8.359375 3.625 -8.359375 C 4.007812 -8.359375 4.375 -8.3125 4.71875 -8.21875 C 5.070312 -8.132812 5.398438 -8.019531 5.703125 -7.875 C 6.003906 -7.738281 6.273438 -7.59375 6.515625 -7.4375 Z M 5.8125 -6.125 "/></g></g></g></svg>